HIERARCHY
ROOT Hips
{
  OFFSET 1.44925e-005 102.336 -0.101585
  CHANNELS 6 Xposition Yposition Zposition Zrotation Xrotation Yrotation
  JOINT LeftUpLeg
  {
    OFFSET 8.9458 -8.66707 0.101652
    CHANNELS 3 Zrotation Xrotation Yrotation
    JOINT LeftLeg
    {
      OFFSET 0 -44.4227 1.3727
      CHANNELS 3 Zrotation Xrotation Yrotation
      JOINT LeftFoot
      {
        OFFSET -0.253549 -42.0924 -1.46059
        CHANNELS 3 Zrotation Xrotation Yrotation
        JOINT LeftToes
        {
          OFFSET -0.04 -4.41509 8.4991
          CHANNELS 3 Zrotation Xrotation Yrotation
          End Site
          {
            OFFSET 0.08 -0.047448 9.77979
          }
        }
      }
    }
  }
  JOINT Spine
  {
    OFFSET 0 11.8905 0
    CHANNELS 3 Zrotation Xrotation Yrotation
    JOINT Spine1
    {
      OFFSET 0 25.6574 0.127663
      CHANNELS 3 Zrotation Xrotation Yrotation
      JOINT RightShoulder
      {
        OFFSET -8.99 -0.362252 -0.22
        CHANNELS 3 Zrotation Xrotation Yrotation
        JOINT RightArm
        {
          OFFSET -10.2827 -0.00338 0.322123
          CHANNELS 3 Zrotation Xrotation Yrotation
          JOINT RightForeArm
          {
            OFFSET -26.364 0.099144 -1.42434
            CHANNELS 3 Zrotation Xrotation Yrotation
            JOINT RightHand
            {
              OFFSET -22.0324 0.085362 1.02216
              CHANNELS 3 Zrotation Xrotation Yrotation
              End Site
              {
                OFFSET -13.3284 -0.6 1.50291
              }
            }
          }
        }
      }
      JOINT LeftShoulder1
      {
        OFFSET 8.99 -0.362252 -0.22
        CHANNELS 3 Zrotation Xrotation Yrotation
        JOINT LeftArm
        {
          OFFSET 10.2827 -0.00337999 0.322123
          CHANNELS 3 Zrotation Xrotation Yrotation
          JOINT LeftForeArm
          {
            OFFSET 26.2597 0.099144 -1.42434
            CHANNELS 3 Zrotation Xrotation Yrotation
            JOINT LeftHand
            {
              OFFSET 22.0902 0.085362 1.02216
              CHANNELS 3 Zrotation Xrotation Yrotation
              End Site
              {
                OFFSET 13.419 -0.6 1.50291
              }
            }
          }
        }
      }
      JOINT Head
      {
        OFFSET 0 8.73416 0.011341
        CHANNELS 3 Zrotation Xrotation Yrotation
        End Site
        {
          OFFSET -0.29 12.7742 2.51395
        }
      }
    }
  }
  JOINT RightUpLeg
  {
    OFFSET -8.9458 -8.66707 0.101652
    CHANNELS 3 Zrotation Xrotation Yrotation
    JOINT RightLeg
    {
      OFFSET 0 -44.4227 1.3727
      CHANNELS 3 Zrotation Xrotation Yrotation
      JOINT RightFoot
      {
        OFFSET 0.253549 -42.0924 -1.46059
        CHANNELS 3 Zrotation Xrotation Yrotation
        JOINT RightToes
        {
          OFFSET 0.04 -4.41509 8.4991
          CHANNELS 3 Zrotation Xrotation Yrotation
          End Site
          {
            OFFSET -0.08 -0.137448 9.77979
          }
        }
      }
    }
  }
}
MOTION
Frames:	12
Frame Time:	0.0333333
187.164 103.064 8.54208 -4.14948 -0.380546 -90.2963 -1.68056 3.55564 1.60031 0.474503 8.20319 17.3608 -2.20701 -11.7448 -0.0226462 -1.30073e-009 8.75244e-006 -1.47362e-008 0.165626 7.90276 0.0757554 -0.800449 -1.33313 0.315496 36.9485 1.75942 0.0625358 40.2596 -11.5224 2.47139 6.81981 30.7968 12.373 -10.8944 9.36477 0.693586 -44.3451 3.54099 -3.44312 -26.7156 -10.573 3.12263 -3.61382 31.4305 -16.6463 5.82328 9.61819 -0.917488 0.950664 -9.26018 -2.57282 -0.82192 3.35808 -4.52364 0.312505 9.73812 -11.7721 3.0781 -13.3239 -0.0618404 0.0462048 0.000530889 0.662642 
187.18 103.064 8.54208 -4.11736 -0.34472 -90.3151 -1.62932 3.52913 1.62988 0.458649 8.17166 17.335 -2.19091 -11.757 -0.0226472 -1.30073e-009 8.75244e-006 -1.47362e-008 0.0953747 8.13042 0.0641182 -0.655933 -1.66276 0.273221 36.827 1.75942 0.0770486 40.3534 -11.5563 2.41671 6.677 31.0538 12.4774 -10.6321 9.38823 0.577945 -44.4239 3.54962 -3.44373 -26.6966 -10.3177 3.27928 -3.52018 31.2226 -16.8178 5.82328 9.61819 -0.917488 0.488716 -9.22783 -2.76777 -0.770646 3.31414 -4.4758 0.302918 9.7264 -11.8124 3.04257 -13.2925 -0.0618324 0.0462048 0.000530889 0.662642 
187.205 103.064 8.54149 -4.07274 -0.300152 -90.345 -1.57269 3.47566 1.66272 0.44438 8.15925 17.3225 -2.17258 -11.7586 -0.0226473 -1.30073e-009 8.75244e-006 -1.47362e-008 0.0263007 8.37218 0.0545728 -0.567824 -1.97865 0.241719 36.8101 1.75942 0.0841883 40.3886 -11.3713 2.3924 6.50089 31.0374 12.7089 -10.3229 9.4196 0.388362 -44.4172 3.54766 -3.44123 -26.7562 -10.1531 3.3374 -3.42356 31.1034 -16.9639 5.82328 9.61819 -0.917488 0.00640568 -8.98227 -2.99138 -0.708286 3.26248 -4.41044 0.2897 9.68819 -11.8591 2.99883 -13.2409 -0.0618193 0.0462048 0.000530889 0.662642 
187.22 103.064 8.53769 -4.04412 -0.283279 -90.3342 -1.54747 3.42269 1.67137 0.441382 8.18234 17.304 -2.17233 -11.7525 -0.0226468 -1.30073e-009 8.75244e-006 -1.47362e-008 -0.0535955 8.38313 0.0440937 -0.567224 -1.95249 0.22668 36.9842 1.75942 0.0732629 40.2939 -11.0065 2.4624 6.39775 30.7355 12.9431 -10.1694 9.43112 0.340146 -44.2801 3.52789 -3.42301 -26.8808 -10.046 3.1903 -3.371 31.0661 -17.036 5.82328 9.61819 -0.917488 -0.149133 -8.82439 -3.1175 -0.678786 3.23866 -4.37811 0.285566 9.65318 -11.9049 2.97921 -13.2104 -0.0619101 0.0462048 0.000530889 0.662642 
187.224 103.064 8.52916 -4.02673 -0.284724 -90.2763 -1.53591 3.37564 1.66566 0.440995 8.22048 17.252 -2.19261 -11.7495 -0.0226465 -1.30073e-009 8.75244e-006 -1.47362e-008 -0.254494 8.26297 0.0403457 -0.409488 -1.75738 0.189404 37.0672 1.75807 0.0632117 40.2721 -10.6429 2.56078 6.34356 30.3978 13.1291 -10.1471 9.42272 0.460026 -44.252 3.51719 -3.40622 -26.8783 -9.85306 2.96883 -3.39129 31.0565 -17.0275 5.82328 9.61819 -0.917488 -0.348212 -9.08084 -3.33079 -0.670383 3.23324 -4.37478 0.290103 9.63156 -11.963 2.978 -13.2019 -0.0623637 0.0462048 0.000530889 0.662642 
187.231 103.064 8.52252 -4.0017 -0.279575 -90.2482 -1.51941 3.32369 1.66286 0.44031 8.25491 17.2182 -2.21483 -11.7514 -0.0226467 -1.30073e-009 8.75244e-006 -1.47362e-008 -0.537856 8.25697 0.0698737 -0.0508008 -1.71466 0.146795 36.8427 1.75105 0.0655519 40.4947 -10.2874 2.58298 6.29803 29.9438 13.331 -10.2431 9.40959 0.563464 -44.4686 3.535 -3.40883 -26.6721 -9.86726 2.73953 -3.54571 31.3025 -16.7989 5.82328 9.61819 -0.917488 -0.932805 -9.45736 -3.44882 -0.657324 3.20957 -4.36392 0.289056 9.61857 -12.004 2.98236 -13.1876 -0.0628933 0.0462048 0.000530889 0.662642 
187.25 103.065 8.5285 -3.97318 -0.26305 -90.3134 -1.50747 3.28206 1.66874 0.43502 8.26724 17.2716 -2.21754 -11.7418 -0.0226459 -1.30073e-009 8.75244e-006 -1.47362e-008 -0.691687 8.42532 0.119291 0.17537 -1.87831 0.149707 36.5535 1.74233 0.0678824 40.7786 -9.87657 2.52972 6.27028 29.2956 13.5652 -10.4166 9.40505 0.508282 -44.6805 3.55776 -3.42174 -26.4683 -10.2954 2.50067 -3.78603 31.8022 -16.3915 5.82328 9.61819 -0.917488 -1.35147 -9.49128 -3.49786 -0.639614 3.15507 -4.33383 0.280495 9.62538 -11.981 2.98713 -13.1612 -0.0634689 0.0462048 0.000530889 0.662642 
187.27 103.069 8.54536 -3.96499 -0.241261 -90.4311 -1.51001 3.28184 1.6743 0.431705 8.24763 17.3846 -2.20039 -11.7243 -0.0226445 -1.30073e-009 8.75244e-006 -1.47362e-008 -0.628221 8.59514 0.127683 0.035205 -2.04079 0.182388 36.579 1.74053 0.0609834 40.807 -9.54671 2.51069 6.25324 28.8875 13.721 -10.4141 9.4114 0.441606 -44.6149 3.5512 -3.41869 -26.4414 -10.6555 2.32468 -3.92246 32.0218 -16.1666 5.82328 9.61819 -0.917488 -0.952677 -9.01842 -3.23142 -0.63204 3.1088 -4.31028 0.269241 9.65074 -11.9024 2.98456 -13.1396 -0.0640668 0.0462048 0.000530889 0.662642 
187.275 103.071 8.56049 -3.97745 -0.227157 -90.5097 -1.51215 3.31295 1.6827 0.427999 8.2137 17.4621 -2.18231 -11.7168 -0.0226439 -1.30073e-009 8.75244e-006 -1.47362e-008 -0.534183 8.61475 0.0848378 -0.214056 -2.04308 0.184566 36.8346 1.74137 0.0534932 40.6195 -9.50349 2.58175 6.17472 29.2072 13.7405 -10.0335 9.41241 0.669257 -44.4355 3.52615 -3.39648 -26.4428 -10.3557 2.26713 -3.87041 31.5993 -16.341 5.82328 9.61819 -0.917488 -0.26828 -8.53441 -2.80878 -0.631456 3.109 -4.30791 0.262242 9.65339 -11.8311 2.96723 -13.126 -0.0646596 0.0462048 0.000530889 0.662642 
187.269 103.072 8.56738 -3.98345 -0.214439 -90.5354 -1.4993 3.33348 1.69958 0.419064 8.19074 17.4768 -2.17677 -11.724 -0.0225528 -1.30073e-009 8.75244e-006 -1.47362e-008 -0.592346 8.52854 0.0663102 -0.216702 -1.9273 0.164484 36.918 1.74399 0.0514868 40.5338 -9.62052 2.64681 6.02863 29.8329 13.7504 -9.60849 9.3994 1.13775 -44.4685 3.51946 -3.37853 -26.2802 -9.60127 2.21977 -3.78037 30.9501 -16.6468 5.82328 9.61819 -0.917488 -0.196565 -8.50289 -2.6726 -0.623421 3.13724 -4.30674 0.261626 9.6095 -11.8014 2.94441 -13.1082 -0.0652161 0.0462048 0.000530889 0.662642 
187.262 103.073 8.57195 -3.97338 -0.203401 -90.5643 -1.48657 3.33499 1.71577 0.407706 8.17876 17.4898 -2.17718 -11.7298 -0.0220069 -1.30073e-009 8.75244e-006 -1.47362e-008 -0.708355 8.47268 0.109468 -0.0870274 -1.83065 0.181872 36.8178 1.74751 0.0471073 40.5702 -9.50022 2.58894 5.97496 29.6794 13.8639 -9.73221 9.3821 1.27866 -44.6109 3.52752 -3.37323 -26.1037 -9.08829 2.06028 -3.78618 30.6916 -16.7401 5.82328 9.61819 -0.917488 -0.438132 -8.65918 -2.78023 -0.612976 3.149 -4.29322 0.255745 9.56407 -11.7842 2.94996 -13.0892 -0.0657088 0.0462048 0.000530889 0.662642 
187.258 103.074 8.58329 -3.96423 -0.199798 -90.6131 -1.49482 3.33666 1.7168 0.403614 8.17518 17.5363 -2.171 -11.7303 -0.0212044 -1.30073e-009 8.75244e-006 -1.47362e-008 -0.686554 8.50009 0.138187 -0.19901 -1.84569 0.230407 36.9379 1.75108 0.0328692 40.4149 -9.10242 2.44968 6.15047 28.6027 13.9617 -10.4065 9.3818 0.805377 -44.4586 3.51186 -3.36513 -26.2169 -9.1448 1.86047 -3.83371 30.9385 -16.6261 5.82328 9.61819 -0.917488 0.127264 -8.30523 -2.58008 -0.618473 3.13457 -4.28589 0.249756 9.5679 -11.7499 2.97556 -13.0828 -0.0661134 0.0462048 0.000530889 0.662642 
